<svg xmlns="http://www.w3.org/2000/svg" viewBox="0 0 64 64">
  <defs>
    <linearGradient id="bg" x1="0%" y1="0%" x2="100%" y2="100%">
      <stop offset="0%" stop-color="#00D4C8"/>
      <stop offset="100%" stop-color="#0A84D4"/>
    </linearGradient>
  </defs>
  <!-- Background rounded square -->
  <rect width="64" height="64" rx="14" fill="url(#bg)"/>
  <!-- Tooth (Twemoji path scaled ~1.22x, centered) -->
  <g transform="translate(10, 8) scale(1.22)">
    <path fill="#FFFFFF"
      d="M18 2C13 2 11.11-1.276 7.002.7 3 2.625 7 17.002 9 20c-.444 2.537-.59 8.787-.171 10.91.576 2.921 1.561 5.09 2.748 5.09 2 0 2.423-13.002 6.423-13V2zm0 0c5 0 6.89-3.276 10.998-1.3C33 2.625 29 17.002 27 20c.444 2.537.59 8.787.171 10.91-.575 2.921-1.561 5.09-2.748 5.09-2 0-2.423-13.002-6.423-13V2z"/>
    <path fill="rgba(255,255,255,0.35)"
      d="M18 7.259c-2.278 0-4.419-.81-5.444-1.563-.334-.245-.406-.715-.161-1.048.246-.335.714-.405 1.048-.161.84.617 2.722 1.273 4.556 1.273 1.97 0 3.942-.709 4.489-1.217.305-.282.777-.264 1.06.039.281.304.265.778-.039 1.06-.958.891-3.431 1.617-5.509 1.617z"/>
  </g>
</svg>
